# xmcd CD database file
#
# Track frame offsets:
#	150
#	27754
#	51377
#	89609
#	110366
#	138629
#	163491
#	181335
#	204881
#	227156
#
# Disc length: 3918 seconds
#
# Revision: 0
# Processed by: cddbd v1.5.2PL0 Copyright (c) Steve Scherf et al.
# Submitted via: CDex 1.51
#
DISCID=8b0f4c0a
DTITLE=Maja Osojnik Quartet - Oblaki so rdeci
DYEAR=2006
DGENRE=Jazz
TTITLE0=Da jöra ta Banerina
TTITLE1=Nocoj pa oh nocoj
TTITLE2=Vsi su venci vejli
TTITLE3=Iz zemlje gre v trsek
TTITLE4=Hisa stevilka 203
TTITLE5=Oblaki so rdeci
TTITLE6=Kaj ti je deklica
TTITLE7=Smrt ma krive rebra
TTITLE8=Rasti, rasti rozmarin
TTITLE9=Zlata je zibka
EXTD=YEAR: 2006
EXTT0=
EXTT1=
EXTT2=
EXTT3=
EXTT4=
EXTT5=
EXTT6=
EXTT7=
EXTT8=
EXTT9=
PLAYORDER=
